<svg xmlns="http://www.w3.org/2000/svg" version="1.1" xmlns:xlink="http://www.w3.org/1999/xlink" xmlns:svgjs="http://svgjs.dev/svgjs" width="1000" height="1000" viewBox="0 0 1000 1000"><rect width="1000" height="1000" fill="#ffffff"></rect><g transform="matrix(0.7,0,0,0.7,149.57578227139584,381.0468448283316)"><svg viewBox="0 0 396 135" data-background-color="#ffffff" preserveAspectRatio="xMidYMid meet" height="340" width="1000" xmlns="http://www.w3.org/2000/svg" xmlns:xlink="http://www.w3.org/1999/xlink"><defs></defs><g id="tight-bounds" transform="matrix(1,0,0,1,0.23998659890656882,-0.02657164632253739)"><svg viewBox="0 0 395.52 135.0531432926451" height="135.0531432926451" width="395.52"><g><svg viewBox="0 0 588.6536074746027 200.99999999999997" height="135.0531432926451" width="395.52"><g><rect width="8.497828015384616" height="200.99999999999997" x="196.4678486899873" y="0" fill="#ffa96a" opacity="1" stroke-width="0" stroke="transparent" fill-opacity="1" class="rect-o-0" data-fill-palette-color="primary" rx="1%" id="o-0" data-palette-color="#ffa96a"></rect></g><g transform="matrix(1,0,0,1,227.211299782295,0.4999999999999858)"><svg viewBox="0 0 361.4423076923077 200" height="200" width="361.4423076923077"><g><svg viewBox="0 0 361.4423076923077 200" height="200" width="361.4423076923077"><g><svg viewBox="0 0 361.4423076923077 200" height="200" width="361.4423076923077"><g transform="matrix(1,0,0,1,0,0)"><svg width="361.4423076923077" viewBox="-0.050002872943878174 -43.64999771118164 187.94998168945312 101" height="200" data-palette-color="#ffa96a"><svg></svg><svg></svg><g class="undefined-text-0" data-fill-palette-color="primary" id="text-0"><path d="M44.35-41.45c0.933 0.133 1.577 0.417 1.93 0.85 0.347 0.433 0.52 1 0.52 1.7v0c0 2.3-1.233 3.367-3.7 3.2v0l-1.75-0.15c-1.967-0.167-3.923-0.3-5.87-0.4-1.953-0.1-3.997-0.15-6.13-0.15v0h-2.25c-0.4 4.933-0.817 9.433-1.25 13.5v0l8.6-0.15c1.233 0 2.06 0.217 2.48 0.65 0.413 0.433 0.62 1.017 0.62 1.75v0c0 1.133-0.333 2.023-1 2.67-0.667 0.653-1.617 0.98-2.85 0.98v0h-8.55l-0.3 2.15c-0.7 5.5-2.19 9.417-4.47 11.75-2.287 2.333-5.43 3.5-9.43 3.5v0c-2.267 0-4.35-0.49-6.25-1.47-1.9-0.987-3.3-2.18-4.2-3.58v0c-0.367-0.567-0.55-1.25-0.55-2.05v0c0-0.8 0.193-1.5 0.58-2.1 0.38-0.6 0.853-0.9 1.42-0.9v0c0.4 0 0.793 0.133 1.18 0.4 0.38 0.267 0.87 0.783 1.47 1.55v0c1.6 2.1 3.583 3.15 5.95 3.15v0c1.9 0 3.493-0.777 4.78-2.33 1.28-1.547 2.103-3.987 2.47-7.32v0l0.3-2.75h-2.4c-0.767 0-1.423-0.217-1.97-0.65-0.553-0.433-0.83-1.05-0.83-1.85v0c0-1.033 0.267-1.827 0.8-2.38 0.533-0.547 1.317-0.82 2.35-0.82v0c0.933 0 1.85-0.017 2.75-0.05v0c0.4-3.667 0.833-8.117 1.3-13.35v0c-3.6 0.333-6.133 0.917-7.6 1.75-1.467 0.833-2.2 2.067-2.2 3.7v0c0 1.133 0.333 2.217 1 3.25v0c0.2 0.3 0.3 0.6 0.3 0.9v0c0 0.6-0.333 1.123-1 1.57-0.667 0.453-1.417 0.68-2.25 0.68v0c-0.9 0-1.667-0.267-2.3-0.8v0c-0.4-0.333-0.783-1.017-1.15-2.05-0.367-1.033-0.55-2.183-0.55-3.45v0c0-4.133 2.127-7.133 6.38-9 4.247-1.867 10.453-2.8 18.62-2.8v0c5.667 0 10.667 0.3 15 0.9zM43.1 0.25c-1.5 0-2.723-0.693-3.67-2.08-0.953-1.38-1.43-3.103-1.43-5.17v0c0-2.5 0.167-4.793 0.5-6.88 0.333-2.08 0.883-4.287 1.65-6.62v0c0.333-1 0.8-1.717 1.4-2.15 0.6-0.433 1.55-0.65 2.85-0.65v0c0.733 0 1.243 0.117 1.53 0.35 0.28 0.233 0.42 0.583 0.42 1.05v0c0 0.267-0.183 1.167-0.55 2.7v0c-0.333 1.233-0.6 2.35-0.8 3.35v0c-0.667 3.5-1 5.833-1 7v0c0 0.7 0.083 1.19 0.25 1.47 0.167 0.287 0.433 0.43 0.8 0.43v0c0.5 0 1.127-0.5 1.88-1.5 0.747-1 1.547-2.517 2.4-4.55 0.847-2.033 1.67-4.533 2.47-7.5v0c0.267-1 0.677-1.717 1.23-2.15 0.547-0.433 1.37-0.65 2.47-0.65v0c0.767 0 1.3 0.09 1.6 0.27 0.3 0.187 0.45 0.53 0.45 1.03v0c0 0.833-0.417 3.117-1.25 6.85v0c-0.933 4.267-1.4 6.9-1.4 7.9v0c0 0.633 0.133 1.123 0.4 1.47 0.267 0.353 0.617 0.53 1.05 0.53v0c0.667 0 1.46-0.41 2.38-1.23 0.913-0.813 2.137-2.137 3.67-3.97v0c0.4-0.467 0.85-0.7 1.35-0.7v0c0.433 0 0.777 0.2 1.03 0.6 0.247 0.4 0.37 0.95 0.37 1.65v0c0 1.333-0.317 2.367-0.95 3.1v0c-1.433 1.767-2.973 3.217-4.62 4.35-1.653 1.133-3.53 1.7-5.63 1.7v0c-1.6 0-2.773-0.617-3.52-1.85-0.753-1.233-1.13-2.967-1.13-5.2v0c-0.567 2.267-1.417 4.007-2.55 5.22-1.133 1.22-2.35 1.83-3.65 1.83zM64.65 0.25c-1.267 0-2.157-0.667-2.67-2-0.52-1.333-0.78-3.467-0.78-6.4v0c0-4.333 0.617-8.45 1.85-12.35v0c0.3-0.967 0.793-1.677 1.48-2.13 0.68-0.447 1.637-0.67 2.87-0.67v0c0.667 0 1.133 0.083 1.4 0.25 0.267 0.167 0.4 0.483 0.4 0.95v0c0 0.533-0.25 1.733-0.75 3.6v0c-0.333 1.333-0.6 2.5-0.8 3.5-0.2 1-0.367 2.233-0.5 3.7v0c1.1-2.867 2.333-5.2 3.7-7 1.367-1.8 2.71-3.083 4.03-3.85 1.313-0.767 2.52-1.15 3.62-1.15v0c2.167 0 3.25 1.083 3.25 3.25v0c0 1.3-0.367 3.65-1.1 7.05v0c-0.633 2.9-0.95 4.817-0.95 5.75v0c0 1.333 0.483 2 1.45 2v0c0.667 0 1.46-0.41 2.38-1.23 0.913-0.813 2.137-2.137 3.67-3.97v0c0.4-0.467 0.85-0.7 1.35-0.7v0c0.433 0 0.777 0.2 1.03 0.6 0.247 0.4 0.37 0.95 0.37 1.65v0c0 1.333-0.317 2.367-0.95 3.1v0c-1.433 1.767-2.973 3.217-4.62 4.35-1.653 1.133-3.53 1.7-5.63 1.7v0c-1.7 0-2.983-0.493-3.85-1.48-0.867-0.98-1.3-2.403-1.3-4.27v0c0-0.933 0.233-2.6 0.7-5v0c0.433-2.1 0.65-3.55 0.65-4.35v0c0-0.533-0.183-0.8-0.55-0.8v0c-0.433 0-1.04 0.557-1.82 1.67-0.787 1.12-1.587 2.597-2.4 4.43-0.82 1.833-1.48 3.767-1.98 5.8v0c-0.367 1.567-0.793 2.623-1.28 3.17-0.48 0.553-1.237 0.83-2.27 0.83zM95.45 0.25c-3.267 0-5.807-0.927-7.62-2.78-1.82-1.847-2.73-4.287-2.73-7.32v0c0-2.7 0.533-5.067 1.6-7.1 1.067-2.033 2.45-3.6 4.15-4.7 1.7-1.1 3.483-1.65 5.35-1.65v0c1.833 0 3.257 0.54 4.27 1.62 1.02 1.087 1.53 2.48 1.53 4.18v0c0 1.4-0.307 2.583-0.92 3.55-0.62 0.967-1.43 1.45-2.43 1.45v0c-0.633 0-1.14-0.15-1.52-0.45-0.387-0.3-0.58-0.717-0.58-1.25v0c0-0.233 0.033-0.5 0.1-0.8 0.067-0.3 0.117-0.517 0.15-0.65v0c0.167-0.5 0.25-0.967 0.25-1.4v0c0-0.433-0.11-0.767-0.33-1-0.213-0.233-0.52-0.35-0.92-0.35v0c-0.767 0-1.483 0.34-2.15 1.02-0.667 0.687-1.2 1.613-1.6 2.78-0.4 1.167-0.6 2.45-0.6 3.85v0c0 3.867 1.683 5.8 5.05 5.8v0c1.367 0 2.84-0.46 4.42-1.38 1.587-0.913 3.147-2.287 4.68-4.12v0c0.4-0.467 0.85-0.7 1.35-0.7v0c0.433 0 0.773 0.2 1.02 0.6 0.253 0.4 0.38 0.95 0.38 1.65v0c0 1.267-0.317 2.3-0.95 3.1v0c-1.567 1.933-3.44 3.423-5.62 4.47-2.187 1.053-4.297 1.58-6.33 1.58zM126.85-11.15c0.433 0 0.777 0.2 1.03 0.6 0.247 0.4 0.37 0.95 0.37 1.65v0c0 1.333-0.317 2.367-0.95 3.1v0c-1.433 1.767-3 3.217-4.7 4.35-1.7 1.133-3.65 1.7-5.85 1.7v0c-6.8 0-10.2-4.783-10.2-14.35v0c0-1.467 0.05-2.95 0.15-4.45v0h-1.95c-1 0-1.673-0.183-2.02-0.55-0.353-0.367-0.53-0.95-0.53-1.75v0c0-1.867 0.75-2.8 2.25-2.8v0h2.85c0.567-3.667 1.433-7.017 2.6-10.05 1.167-3.033 2.577-5.45 4.23-7.25 1.647-1.8 3.42-2.7 5.32-2.7v0c1.4 0 2.5 0.617 3.3 1.85 0.8 1.233 1.2 2.783 1.2 4.65v0c0 5.167-2.167 9.667-6.5 13.5v0h5.6c0.533 0 0.917 0.117 1.15 0.35 0.233 0.233 0.35 0.667 0.35 1.3v0c0 2.3-1.883 3.45-5.65 3.45v0h-6.1c-0.067 1.667-0.1 2.967-0.1 3.9v0c0 3.467 0.41 5.9 1.23 7.3 0.813 1.4 2.103 2.1 3.87 2.1v0c1.433 0 2.7-0.433 3.8-1.3 1.1-0.867 2.4-2.167 3.9-3.9v0c0.4-0.467 0.85-0.7 1.35-0.7zM118.1-38.85c-0.5 0-1.057 0.623-1.67 1.87-0.62 1.253-1.203 2.987-1.75 5.2-0.553 2.22-1.013 4.68-1.38 7.38v0c1.967-1.7 3.443-3.61 4.43-5.73 0.98-2.113 1.47-4.037 1.47-5.77v0c0-1.967-0.367-2.95-1.1-2.95zM130.75-26.6c-1.4 0-2.45-0.327-3.15-0.98-0.7-0.647-1.05-1.553-1.05-2.72v0c0-1.167 0.46-2.143 1.38-2.93 0.913-0.78 2.053-1.17 3.42-1.17v0c1.233 0 2.233 0.3 3 0.9 0.767 0.6 1.15 1.45 1.15 2.55v0c0 1.333-0.433 2.39-1.3 3.17-0.867 0.787-2.017 1.18-3.45 1.18zM130.35 0.25c-2.167 0-3.74-0.767-4.72-2.3-0.987-1.533-1.48-3.567-1.48-6.1v0c0-1.5 0.193-3.427 0.58-5.78 0.38-2.347 0.87-4.537 1.47-6.57v0c0.3-1.067 0.7-1.8 1.2-2.2 0.5-0.4 1.3-0.6 2.4-0.6v0c1.7 0 2.55 0.567 2.55 1.7v0c0 0.833-0.317 2.767-0.95 5.8v0c-0.8 3.667-1.2 6.15-1.2 7.45v0c0 1 0.133 1.767 0.4 2.3 0.267 0.533 0.717 0.8 1.35 0.8v0c0.6 0 1.35-0.417 2.25-1.25 0.9-0.833 2.1-2.15 3.6-3.95v0c0.4-0.467 0.85-0.7 1.35-0.7v0c0.433 0 0.777 0.2 1.03 0.6 0.247 0.4 0.37 0.95 0.37 1.65v0c0 1.333-0.317 2.367-0.95 3.1v0c-3.3 4.033-6.383 6.05-9.25 6.05zM162-15.35c0.433 0 0.767 0.217 1 0.65 0.233 0.433 0.35 0.983 0.35 1.65v0c0 1.6-0.483 2.55-1.45 2.85v0c-2 0.7-4.2 1.1-6.6 1.2v0c-0.633 2.8-1.883 5.043-3.75 6.73-1.867 1.68-3.983 2.52-6.35 2.52v0c-2 0-3.707-0.483-5.12-1.45-1.42-0.967-2.497-2.25-3.23-3.85-0.733-1.6-1.1-3.333-1.1-5.2v0c0-2.533 0.483-4.793 1.45-6.78 0.967-1.98 2.3-3.53 4-4.65 1.7-1.113 3.583-1.67 5.65-1.67v0c2.533 0 4.577 0.873 6.13 2.62 1.547 1.753 2.453 3.913 2.72 6.48v0c1.567-0.1 3.433-0.433 5.6-1v0c0.267-0.067 0.5-0.1 0.7-0.1zM145.6-5.05c1.067 0 1.993-0.433 2.78-1.3 0.78-0.867 1.303-2.117 1.57-3.75v0c-1.033-0.7-1.823-1.617-2.37-2.75-0.553-1.133-0.83-2.333-0.83-3.6v0c0-0.533 0.05-1.067 0.15-1.6v0h-0.25c-1.333 0-2.44 0.64-3.32 1.92-0.887 1.287-1.33 3.097-1.33 5.43v0c0 1.833 0.36 3.233 1.08 4.2 0.713 0.967 1.553 1.45 2.52 1.45zM162.6 0.25c-1.267 0-2.157-0.667-2.67-2-0.52-1.333-0.78-3.467-0.78-6.4v0c0-4.333 0.617-8.45 1.85-12.35v0c0.3-0.967 0.793-1.677 1.48-2.13 0.68-0.447 1.637-0.67 2.87-0.67v0c0.667 0 1.133 0.083 1.4 0.25 0.267 0.167 0.4 0.483 0.4 0.95v0c0 0.533-0.25 1.733-0.75 3.6v0c-0.333 1.333-0.6 2.5-0.8 3.5-0.2 1-0.367 2.233-0.5 3.7v0c1.1-2.867 2.333-5.2 3.7-7 1.367-1.8 2.71-3.083 4.03-3.85 1.313-0.767 2.52-1.15 3.62-1.15v0c2.167 0 3.25 1.083 3.25 3.25v0c0 1.3-0.367 3.65-1.1 7.05v0c-0.633 2.9-0.95 4.817-0.95 5.75v0c0 1.333 0.483 2 1.45 2v0c0.667 0 1.46-0.41 2.38-1.23 0.913-0.813 2.137-2.137 3.67-3.97v0c0.4-0.467 0.85-0.7 1.35-0.7v0c0.433 0 0.777 0.2 1.03 0.6 0.247 0.4 0.37 0.95 0.37 1.65v0c0 1.333-0.317 2.367-0.95 3.1v0c-1.433 1.767-2.973 3.217-4.62 4.35-1.653 1.133-3.53 1.7-5.63 1.7v0c-1.7 0-2.983-0.493-3.85-1.48-0.867-0.98-1.3-2.403-1.3-4.27v0c0-0.933 0.233-2.6 0.7-5v0c0.433-2.1 0.65-3.55 0.65-4.35v0c0-0.533-0.183-0.8-0.55-0.8v0c-0.433 0-1.04 0.557-1.82 1.67-0.787 1.12-1.587 2.597-2.4 4.43-0.82 1.833-1.48 3.767-1.98 5.8v0c-0.367 1.567-0.79 2.623-1.27 3.17-0.487 0.553-1.247 0.83-2.28 0.83z" data-fill-palette-color="primary" fill="#ffa96a" opacity="1"></path><path d="M38.3 13.65c0 1-0.207 1.75-0.62 2.25-0.42 0.5-1.097 0.75-2.03 0.75v0c-0.067 0.7-0.217 1.917-0.45 3.65v0c-0.333 2.333-0.517 3.633-0.55 3.9v0c-2.967 22.1-9.15 33.15-18.55 33.15v0c-2.767 0-4.923-0.783-6.47-2.35-1.553-1.567-2.33-3.533-2.33-5.9v0c0-4.233 1.8-7.977 5.4-11.23 3.6-3.247 8.333-5.937 14.2-8.07v0c0.367-2.367 0.65-4.483 0.85-6.35v0l0.9-7.55c-2-0.2-3.867-0.3-5.6-0.3v0c-4.633 0-8.05 0.45-10.25 1.35-2.2 0.9-3.3 2.367-3.3 4.4v0c0 1 0.333 2.083 1 3.25v0c0.2 0.333 0.3 0.683 0.3 1.05v0c0 0.7-0.357 1.323-1.07 1.87-0.72 0.553-1.497 0.83-2.33 0.83v0c-1.067 0-1.883-0.45-2.45-1.35v0c-0.933-1.533-1.4-3.317-1.4-5.35v0c0-8 7-12 21-12v0c4.067 0 7.7 0.4 10.9 1.2v0c1.9 0.467 2.85 1.4 2.85 2.8zM16.75 52c1.633 0 3.267-1.233 4.9-3.7 1.633-2.467 3.067-6.783 4.3-12.95v0c-8.133 3.567-12.2 7.933-12.2 13.1v0c0 1.133 0.267 2.007 0.8 2.62 0.533 0.62 1.267 0.93 2.2 0.93zM42.65 52.25c-1.5 0-2.723-0.693-3.67-2.08-0.953-1.38-1.43-3.103-1.43-5.17v0c0-2.5 0.167-4.793 0.5-6.88 0.333-2.08 0.883-4.287 1.65-6.62v0c0.333-1 0.8-1.717 1.4-2.15 0.6-0.433 1.55-0.65 2.85-0.65v0c0.733 0 1.243 0.117 1.53 0.35 0.28 0.233 0.42 0.583 0.42 1.05v0c0 0.267-0.183 1.167-0.55 2.7v0c-0.333 1.233-0.6 2.35-0.8 3.35v0c-0.667 3.5-1 5.833-1 7v0c0 0.7 0.083 1.19 0.25 1.47 0.167 0.287 0.433 0.43 0.8 0.43v0c0.5 0 1.127-0.5 1.88-1.5 0.747-1 1.547-2.517 2.4-4.55 0.847-2.033 1.67-4.533 2.47-7.5v0c0.267-1 0.677-1.717 1.23-2.15 0.547-0.433 1.37-0.65 2.47-0.65v0c0.767 0 1.3 0.09 1.6 0.27 0.3 0.187 0.45 0.53 0.45 1.03v0c0 0.833-0.417 3.117-1.25 6.85v0c-0.933 4.267-1.4 6.9-1.4 7.9v0c0 0.633 0.133 1.123 0.4 1.47 0.267 0.353 0.617 0.53 1.05 0.53v0c0.667 0 1.457-0.41 2.37-1.23 0.92-0.813 2.147-2.137 3.68-3.97v0c0.4-0.467 0.85-0.7 1.35-0.7v0c0.433 0 0.777 0.2 1.03 0.6 0.247 0.4 0.37 0.95 0.37 1.65v0c0 1.333-0.317 2.367-0.95 3.1v0c-1.433 1.767-2.973 3.217-4.62 4.35-1.653 1.133-3.53 1.7-5.63 1.7v0c-1.6 0-2.773-0.617-3.52-1.85-0.753-1.233-1.13-2.967-1.13-5.2v0c-0.567 2.267-1.417 4.007-2.55 5.22-1.133 1.22-2.35 1.83-3.65 1.83zM64.2 52.25c-1.267 0-2.16-0.667-2.68-2-0.513-1.333-0.77-3.467-0.77-6.4v0c0-4.333 0.617-8.45 1.85-12.35v0c0.3-0.967 0.793-1.677 1.48-2.13 0.68-0.447 1.637-0.67 2.87-0.67v0c0.667 0 1.133 0.083 1.4 0.25 0.267 0.167 0.4 0.483 0.4 0.95v0c0 0.533-0.25 1.733-0.75 3.6v0c-0.333 1.333-0.6 2.5-0.8 3.5-0.2 1-0.367 2.233-0.5 3.7v0c1.1-2.867 2.333-5.2 3.7-7 1.367-1.8 2.707-3.083 4.02-3.85 1.32-0.767 2.53-1.15 3.63-1.15v0c2.167 0 3.25 1.083 3.25 3.25v0c0 1.3-0.367 3.65-1.1 7.05v0c-0.633 2.9-0.95 4.817-0.95 5.75v0c0 1.333 0.483 2 1.45 2v0c0.667 0 1.46-0.41 2.38-1.23 0.913-0.813 2.137-2.137 3.67-3.97v0c0.4-0.467 0.85-0.7 1.35-0.7v0c0.433 0 0.777 0.2 1.03 0.6 0.247 0.4 0.37 0.95 0.37 1.65v0c0 1.333-0.317 2.367-0.95 3.1v0c-1.433 1.767-2.977 3.217-4.63 4.35-1.647 1.133-3.52 1.7-5.62 1.7v0c-1.7 0-2.983-0.493-3.85-1.48-0.867-0.98-1.3-2.403-1.3-4.27v0c0-0.933 0.233-2.6 0.7-5v0c0.433-2.1 0.65-3.55 0.65-4.35v0c0-0.533-0.183-0.8-0.55-0.8v0c-0.433 0-1.04 0.557-1.82 1.67-0.787 1.12-1.59 2.597-2.41 4.43-0.813 1.833-1.47 3.767-1.97 5.8v0c-0.367 1.567-0.793 2.623-1.28 3.17-0.48 0.553-1.237 0.83-2.27 0.83zM95 52.25c-3.267 0-5.807-0.927-7.62-2.78-1.82-1.847-2.73-4.287-2.73-7.32v0c0-2.7 0.533-5.067 1.6-7.1 1.067-2.033 2.45-3.6 4.15-4.7 1.7-1.1 3.483-1.65 5.35-1.65v0c1.833 0 3.26 0.54 4.28 1.62 1.013 1.087 1.52 2.48 1.52 4.18v0c0 1.4-0.307 2.583-0.92 3.55-0.62 0.967-1.43 1.45-2.43 1.45v0c-0.633 0-1.143-0.15-1.53-0.45-0.38-0.3-0.57-0.717-0.57-1.25v0c0-0.233 0.033-0.5 0.1-0.8 0.067-0.3 0.117-0.517 0.15-0.65v0c0.167-0.5 0.25-0.967 0.25-1.4v0c0-0.433-0.107-0.767-0.32-1-0.22-0.233-0.53-0.35-0.93-0.35v0c-0.767 0-1.483 0.34-2.15 1.02-0.667 0.687-1.2 1.613-1.6 2.78-0.4 1.167-0.6 2.45-0.6 3.85v0c0 3.867 1.683 5.8 5.05 5.8v0c1.367 0 2.84-0.46 4.42-1.38 1.587-0.913 3.147-2.287 4.68-4.12v0c0.4-0.467 0.85-0.7 1.35-0.7v0c0.433 0 0.777 0.2 1.03 0.6 0.247 0.4 0.37 0.95 0.37 1.65v0c0 1.267-0.317 2.3-0.95 3.1v0c-1.567 1.933-3.44 3.423-5.62 4.47-2.187 1.053-4.297 1.58-6.33 1.58zM126.4 40.85c0.433 0 0.777 0.2 1.03 0.6 0.247 0.4 0.37 0.95 0.37 1.65v0c0 1.333-0.317 2.367-0.95 3.1v0c-1.433 1.767-3 3.217-4.7 4.35-1.7 1.133-3.65 1.7-5.85 1.7v0c-6.8 0-10.2-4.783-10.2-14.35v0c0-1.467 0.05-2.95 0.15-4.45v0h-1.95c-1 0-1.673-0.183-2.02-0.55-0.353-0.367-0.53-0.95-0.53-1.75v0c0-1.867 0.75-2.8 2.25-2.8v0h2.85c0.567-3.667 1.433-7.017 2.6-10.05 1.167-3.033 2.577-5.45 4.23-7.25 1.647-1.8 3.42-2.7 5.32-2.7v0c1.4 0 2.5 0.617 3.3 1.85 0.8 1.233 1.2 2.783 1.2 4.65v0c0 5.167-2.167 9.667-6.5 13.5v0h5.6c0.533 0 0.917 0.117 1.15 0.35 0.233 0.233 0.35 0.667 0.35 1.3v0c0 2.3-1.883 3.45-5.65 3.45v0h-6.1c-0.067 1.667-0.1 2.967-0.1 3.9v0c0 3.467 0.41 5.9 1.23 7.3 0.813 1.4 2.103 2.1 3.87 2.1v0c1.433 0 2.7-0.433 3.8-1.3 1.1-0.867 2.4-2.167 3.9-3.9v0c0.4-0.467 0.85-0.7 1.35-0.7zM117.65 13.15c-0.5 0-1.057 0.623-1.67 1.87-0.62 1.253-1.203 2.987-1.75 5.2-0.553 2.22-1.013 4.68-1.38 7.38v0c1.967-1.7 3.443-3.61 4.43-5.73 0.98-2.113 1.47-4.037 1.47-5.77v0c0-1.967-0.367-2.95-1.1-2.95zM130.3 25.4c-1.4 0-2.45-0.327-3.15-0.98-0.7-0.647-1.05-1.553-1.05-2.72v0c0-1.167 0.46-2.143 1.38-2.93 0.913-0.78 2.053-1.17 3.42-1.17v0c1.233 0 2.233 0.3 3 0.9 0.767 0.6 1.15 1.45 1.15 2.55v0c0 1.333-0.433 2.39-1.3 3.17-0.867 0.787-2.017 1.18-3.45 1.18zM129.9 52.25c-2.167 0-3.74-0.767-4.72-2.3-0.987-1.533-1.48-3.567-1.48-6.1v0c0-1.5 0.193-3.427 0.58-5.78 0.38-2.347 0.87-4.537 1.47-6.57v0c0.3-1.067 0.7-1.8 1.2-2.2 0.5-0.4 1.3-0.6 2.4-0.6v0c1.7 0 2.55 0.567 2.55 1.7v0c0 0.833-0.317 2.767-0.95 5.8v0c-0.8 3.667-1.2 6.15-1.2 7.45v0c0 1 0.133 1.767 0.4 2.3 0.267 0.533 0.717 0.8 1.35 0.8v0c0.6 0 1.35-0.417 2.25-1.25 0.9-0.833 2.1-2.15 3.6-3.95v0c0.4-0.467 0.85-0.7 1.35-0.7v0c0.433 0 0.777 0.2 1.03 0.6 0.247 0.4 0.37 0.95 0.37 1.65v0c0 1.333-0.317 2.367-0.95 3.1v0c-3.3 4.033-6.383 6.05-9.25 6.05zM161.55 36.65c0.433 0 0.767 0.217 1 0.65 0.233 0.433 0.35 0.983 0.35 1.65v0c0 1.6-0.483 2.55-1.45 2.85v0c-2 0.7-4.2 1.1-6.6 1.2v0c-0.633 2.8-1.883 5.043-3.75 6.73-1.867 1.68-3.983 2.52-6.35 2.52v0c-2 0-3.707-0.483-5.12-1.45-1.42-0.967-2.497-2.25-3.23-3.85-0.733-1.6-1.1-3.333-1.1-5.2v0c0-2.533 0.483-4.793 1.45-6.78 0.967-1.98 2.3-3.53 4-4.65 1.7-1.113 3.583-1.67 5.65-1.67v0c2.533 0 4.577 0.873 6.13 2.62 1.547 1.753 2.453 3.913 2.72 6.48v0c1.567-0.1 3.433-0.433 5.6-1v0c0.267-0.067 0.5-0.1 0.7-0.1zM145.15 46.95c1.067 0 1.993-0.433 2.78-1.3 0.78-0.867 1.303-2.117 1.57-3.75v0c-1.033-0.7-1.823-1.617-2.37-2.75-0.553-1.133-0.83-2.333-0.83-3.6v0c0-0.533 0.05-1.067 0.15-1.6v0h-0.25c-1.333 0-2.44 0.64-3.32 1.92-0.887 1.287-1.33 3.097-1.33 5.43v0c0 1.833 0.36 3.233 1.08 4.2 0.713 0.967 1.553 1.45 2.52 1.45zM162.15 52.25c-1.267 0-2.157-0.667-2.67-2-0.52-1.333-0.78-3.467-0.78-6.4v0c0-4.333 0.617-8.45 1.85-12.35v0c0.3-0.967 0.793-1.677 1.48-2.13 0.68-0.447 1.637-0.67 2.87-0.67v0c0.667 0 1.133 0.083 1.4 0.25 0.267 0.167 0.4 0.483 0.4 0.95v0c0 0.533-0.25 1.733-0.75 3.6v0c-0.333 1.333-0.6 2.5-0.8 3.5-0.2 1-0.367 2.233-0.5 3.7v0c1.1-2.867 2.333-5.2 3.7-7 1.367-1.8 2.71-3.083 4.03-3.85 1.313-0.767 2.52-1.15 3.62-1.15v0c2.167 0 3.25 1.083 3.25 3.25v0c0 1.3-0.367 3.65-1.1 7.05v0c-0.633 2.9-0.95 4.817-0.95 5.75v0c0 1.333 0.483 2 1.45 2v0c0.667 0 1.46-0.41 2.38-1.23 0.913-0.813 2.137-2.137 3.67-3.97v0c0.4-0.467 0.85-0.7 1.35-0.7v0c0.433 0 0.777 0.2 1.03 0.6 0.247 0.4 0.37 0.95 0.37 1.65v0c0 1.333-0.317 2.367-0.95 3.1v0c-1.433 1.767-2.973 3.217-4.62 4.35-1.653 1.133-3.53 1.7-5.63 1.7v0c-1.7 0-2.983-0.493-3.85-1.48-0.867-0.98-1.3-2.403-1.3-4.27v0c0-0.933 0.233-2.6 0.7-5v0c0.433-2.1 0.65-3.55 0.65-4.35v0c0-0.533-0.183-0.8-0.55-0.8v0c-0.433 0-1.04 0.557-1.82 1.67-0.787 1.12-1.587 2.597-2.4 4.43-0.82 1.833-1.48 3.767-1.98 5.8v0c-0.367 1.567-0.79 2.623-1.27 3.17-0.487 0.553-1.247 0.83-2.28 0.83z" data-fill-palette-color="primary" fill="#ffa96a" opacity="1"></path></g></svg></g></svg></g></svg></g></svg></g><g transform="matrix(1,0,0,1,0,0.4999999999999858)"><svg viewBox="0 0 174.22222561306424 200" height="200" width="174.22222561306424"><g><svg xmlns="http://www.w3.org/2000/svg" xmlns:xlink="http://www.w3.org/1999/xlink" version="1.1" x="0" y="0" viewBox="10.100000381469727 5.199999809265137 78.4000015258789 90" enable-background="new 0 0 100 100" xml:space="preserve" height="200" width="174.22222561306424" class="icon-icon-0" data-fill-palette-color="accent" id="icon-0"><polygon fill-rule="evenodd" clip-rule="evenodd" fill="#e65728" points="88.5,28.2 68.4,59.9 68.5,22.3 " data-fill-palette-color="accent"></polygon><polygon fill-rule="evenodd" clip-rule="evenodd" fill="#e65728" points="49.8,5.2 67.2,38.5 34.7,19.6 " data-fill-palette-color="accent"></polygon><polygon fill-rule="evenodd" clip-rule="evenodd" fill="#e65728" points="67.8,38.3 67.8,22.3 60.8,24.5 " data-fill-palette-color="accent"></polygon><polygon fill-rule="evenodd" clip-rule="evenodd" fill="#e65728" points="88.2,73.2 50.6,71.7 83.2,52.9 " data-fill-palette-color="accent"></polygon><polygon fill-rule="evenodd" clip-rule="evenodd" fill="#e65728" points="69.1,60.3 82.8,52.3 77.4,47.4 " data-fill-palette-color="accent"></polygon><polygon fill-rule="evenodd" clip-rule="evenodd" fill="#e65728" points="48.7,95.2 31.5,61.9 63.9,80.9 " data-fill-palette-color="accent"></polygon><polygon fill-rule="evenodd" clip-rule="evenodd" fill="#e65728" points="50.5,72.2 64.2,80.2 65.8,73.1 " data-fill-palette-color="accent"></polygon><polygon fill-rule="evenodd" clip-rule="evenodd" fill="#e65728" points="10.1,72 30.5,40.4 30.1,78 " data-fill-palette-color="accent"></polygon><polygon fill-rule="evenodd" clip-rule="evenodd" fill="#e65728" points="30.9,62.1 30.8,78 37.8,75.8 " data-fill-palette-color="accent"></polygon><polygon fill-rule="evenodd" clip-rule="evenodd" fill="#e65728" points="11,27 48.5,28.9 15.8,47.3 " data-fill-palette-color="accent"></polygon><polygon fill-rule="evenodd" clip-rule="evenodd" fill="#e65728" points="30,40.1 16.1,47.9 21.5,52.9 " data-fill-palette-color="accent"></polygon><polygon fill-rule="evenodd" clip-rule="evenodd" fill="#e65728" points="48.2,28.3 34.5,20.2 32.9,27.4 " data-fill-palette-color="accent"></polygon></svg></g></svg></g></svg></g></svg><rect width="395.52" height="135.0531432926451" fill="none" stroke="none" visibility="hidden"></rect></g></svg></g></svg>